HIERARCHY
ROOT Joint1
{
	OFFSET 0.000000 0.000000 0.000000
	CHANNELS 6 Xposition Yposition Zposition Xrotation Yrotation Zrotation
	JOINT Joint2
	{
		OFFSET -0.000000 0.000000 1.456275
		CHANNELS 6 Xposition Yposition Zposition Xrotation Yrotation Zrotation
		JOINT Joint3
		{
			OFFSET -0.000000 0.000002 1.471446
			CHANNELS 6 Xposition Yposition Zposition Xrotation Yrotation Zrotation
			JOINT Joint4
			{
				OFFSET 0.625745 0.000000 0.917755
				CHANNELS 6 Xposition Yposition Zposition Xrotation Yrotation Zrotation
				JOINT Joint5
				{
					OFFSET -0.629534 0.000001 0.940221
					CHANNELS 6 Xposition Yposition Zposition Xrotation Yrotation Zrotation
					JOINT Joint6
					{
						OFFSET -0.000001 0.113772 1.960660
						CHANNELS 6 Xposition Yposition Zposition Xrotation Yrotation Zrotation
						JOINT Joint7
						{
							OFFSET -0.669733 -0.113771 0.388340
							CHANNELS 6 Xposition Yposition Zposition Xrotation Yrotation Zrotation
							End Site
							{
								OFFSET 0.005509 0.005509 0.438980
							}
						}
					}
				}
			}
		}
	}
}
MOTION
Frames: 19
Frame Time: 0.041667
0.000000 0.000000 0.000000 -0.000000 1.019410 15.797734 -0.000000 -0.000000 1.456275 -0.000000 -18.655270 0.000000 -0.000000 0.000002 1.471446 -0.000001 -1.133462 -32.695494 0.625745 0.000000 0.917755 0.000004 118.272976 -0.000000 -0.629534 0.000001 0.940221 -0.000002 1.709737 70.535691 -0.000001 0.113772 1.960661 -88.303875 -222.901134 0.000003 -0.669734 -0.113771 0.388341 0.256309 2.881401 64.031801 
0.000000 0.000000 0.000000 -0.000000 1.019410 15.308684 -0.000000 0.000000 1.456275 0.000000 -19.470107 0.000001 -0.000000 0.000002 1.471446 -0.000001 -1.133464 -31.684588 0.625745 0.000000 0.917755 0.000006 118.791524 -0.000003 -0.629534 0.000001 0.940221 -0.000001 1.709735 68.352025 -0.000001 0.113771 1.960661 -88.303882 -224.359652 0.000003 -0.669733 -0.113771 0.388340 0.242893 2.917953 66.226505 
0.000000 0.000000 0.000000 -0.000000 1.019410 14.744416 -0.000000 0.000000 1.456275 -0.000000 -20.410260 -0.000001 -0.000000 0.000002 1.471445 -0.000001 -1.133463 -30.518221 0.625745 0.000000 0.917755 0.000002 119.389822 -0.000004 -0.629534 0.000001 0.940221 -0.000001 1.709737 65.832532 -0.000001 0.113772 1.960661 -88.303882 -226.042474 0.000002 -0.669733 -0.113771 0.388341 0.225684 2.959458 68.758845 
0.000000 0.000000 0.000000 -0.000000 1.019410 14.180186 -0.000000 0.000000 1.456275 0.000000 -21.350355 0.000000 -0.000000 0.000002 1.471446 -0.000001 -1.133464 -29.351918 0.625745 0.000000 0.917755 0.000004 119.988064 -0.000000 -0.629534 0.000001 0.940221 -0.000001 1.709736 63.313190 -0.000001 0.113772 1.960660 -88.303882 -227.725187 0.000002 -0.669733 -0.113771 0.388341 0.206656 3.000167 71.291138 
0.000000 0.000000 0.000000 -0.000000 1.019410 13.691097 -0.000000 0.000000 1.456275 0.000001 -22.165246 -0.000000 -0.000000 0.000002 1.471446 -0.000000 -1.133463 -28.340946 0.625745 0.000000 0.917755 0.000004 120.506639 -0.000002 -0.629534 0.000001 0.940220 0.000000 1.709737 61.129367 -0.000001 0.113772 1.960660 -88.303882 -229.183801 0.000001 -0.669733 -0.113771 0.388340 0.188717 3.034738 73.486258 
0.000000 0.000000 0.000000 -0.000000 1.019410 13.323058 -0.000000 0.000000 1.456275 0.000000 -22.778459 -0.000001 -0.000000 0.000002 1.471446 0.000000 -1.133461 -27.580188 0.625745 0.000000 0.917754 0.000003 120.896862 0.000000 -0.629534 0.000001 0.940221 0.000000 1.709736 59.486044 -0.000001 0.113773 1.960661 -88.303882 -230.281412 0.000003 -0.669733 -0.113771 0.388340 0.174351 3.060290 75.138146 
0.000000 0.000000 0.000000 -0.000000 1.019410 13.005276 -0.000000 0.000000 1.456275 0.000000 -23.307933 -0.000000 -0.000000 0.000002 1.471446 -0.000000 -1.133462 -26.923311 0.625745 0.000000 0.917755 0.000007 121.233809 -0.000005 -0.629534 0.000001 0.940221 -0.000001 1.709736 58.067113 -0.000001 0.113772 1.960660 -88.303882 -231.229170 0.000004 -0.669733 -0.113771 0.388340 0.161358 3.082007 76.564515 
0.000000 0.000000 0.000000 -0.000000 1.019410 12.637778 -0.000000 0.000000 1.456275 0.000000 -23.920241 -0.000000 -0.000000 0.000002 1.471446 0.000000 -1.133462 -26.163671 0.625745 0.000000 0.917755 0.000004 121.623471 -0.000002 -0.629534 0.000001 0.940221 -0.000000 1.709737 56.426211 -0.000001 0.113772 1.960661 -88.303875 -232.325169 0.000003 -0.669733 -0.113771 0.388340 0.145662 3.106718 78.214047 
0.000000 0.000000 0.000000 -0.000000 1.019410 12.149435 -0.000000 0.000000 1.456275 -0.000000 -24.733891 -0.000001 -0.000000 0.000002 1.471446 -0.000001 -1.133465 -25.154241 0.625744 0.000000 0.917755 0.000005 122.141268 -0.000004 -0.629534 0.000001 0.940221 -0.000001 1.709737 54.245714 -0.000001 0.113772 1.960661 -88.303875 -233.781584 0.000004 -0.669733 -0.113771 0.388340 0.123715 3.138833 80.406087 
0.000000 0.000000 0.000000 -0.000000 1.019410 11.584459 -0.000000 0.000000 1.456275 0.000000 -25.675229 -0.000001 -0.000000 0.000002 1.471445 -0.000001 -1.133465 -23.986400 0.625745 0.000000 0.917755 0.000003 122.740303 -0.000002 -0.629534 0.000001 0.940221 -0.000001 1.709737 51.723052 -0.000001 0.113772 1.960660 -88.303875 -235.466510 0.000003 -0.669733 -0.113771 0.388340 0.096809 3.174908 82.942211 
0.000000 0.000000 0.000000 -0.000000 1.019410 11.017688 -0.000000 0.000000 1.456275 0.000001 -26.619558 -0.000001 -0.000000 0.000002 1.471446 0.000000 -1.133466 -22.814847 0.625745 0.000000 0.917755 0.000004 123.341250 -0.000001 -0.629534 0.000001 0.940220 0.000000 1.709737 49.192361 -0.000001 0.113772 1.960660 -88.303875 -237.156790 0.000003 -0.669733 -0.113771 0.388340 0.068237 3.209868 85.486504 
0.000000 0.000000 0.000000 -0.000000 1.019410 10.531141 -0.000000 0.000000 1.456275 -0.000000 -27.430224 0.000001 -0.000000 0.000002 1.471446 -0.000000 -1.133463 -21.809122 0.625745 0.000001 0.917755 0.000006 123.857134 -0.000001 -0.629534 0.000001 0.940221 -0.000001 1.709737 47.019886 -0.000001 0.113772 1.960661 -88.303875 -238.607850 0.000006 -0.669733 -0.113771 0.388340 0.042489 3.238846 87.670737 
0.000000 0.000000 0.000000 -0.000000 1.019410 10.174812 -0.000000 -0.000000 1.456275 0.000000 -28.023920 0.000001 -0.000000 0.000002 1.471446 -0.000000 -1.133461 -21.072571 0.625745 0.000000 0.917755 0.000005 124.234953 -0.000001 -0.629534 0.000001 0.940221 -0.000001 1.709737 45.428855 -0.000001 0.113772 1.960661 -88.303875 -239.670546 0.000003 -0.669733 -0.113771 0.388340 0.022938 3.259434 89.270429 
0.000000 0.000000 0.000000 -0.000000 1.019410 9.863410 -0.000000 -0.000000 1.456275 0.000000 -28.542761 -0.000001 -0.000000 0.000002 1.471445 -0.000000 -1.133460 -20.428882 0.625745 0.000000 0.917755 0.000003 124.565124 0.000000 -0.629534 0.000001 0.940221 -0.000001 1.709737 44.038416 -0.000001 0.113772 1.960660 -88.303875 -240.599233 0.000003 -0.669734 -0.113771 0.388341 0.005388 3.276976 90.668459 
0.000000 0.000000 0.000000 -0.000000 1.019410 9.477822 -0.000000 -0.000000 1.456275 0.000000 -29.185214 -0.000002 -0.000000 0.000002 1.471446 -0.000000 -1.133463 -19.631847 0.625745 0.000000 0.917755 0.000004 124.973966 -0.000001 -0.629534 0.000001 0.940221 -0.000001 1.709736 42.316727 -0.000002 0.113772 1.960661 -88.303875 -241.749191 0.000003 -0.669733 -0.113771 0.388340 -0.016931 3.298093 92.399598 
0.000000 0.000000 0.000000 -0.000000 1.019410 8.951041 -0.000000 -0.000000 1.456275 0.000000 -30.062914 -0.000000 -0.000000 0.000002 1.471445 0.000000 -1.133459 -18.542960 0.625745 0.000000 0.917755 0.000003 125.532511 -0.000001 -0.629534 0.000001 0.940221 -0.000000 1.709737 39.964598 -0.000002 0.113772 1.960660 -88.303875 -243.320216 0.000004 -0.669733 -0.113771 0.388340 -0.048434 3.325836 94.764715 
0.000000 0.000000 0.000000 -0.000000 1.019410 8.424502 -0.000000 0.000000 1.456275 0.000000 -30.940204 0.000000 -0.000000 0.000002 1.471446 0.000000 -1.133462 -17.454574 0.625745 0.000000 0.917755 0.000002 126.090811 -0.000001 -0.629534 0.000001 0.940221 -0.000001 1.709736 37.613572 -0.000001 0.113772 1.960661 -88.303875 -244.890531 0.000004 -0.669733 -0.113771 0.388341 -0.081042 3.352246 97.128801 
0.000000 0.000000 0.000000 -0.000000 1.019410 8.039512 -0.000000 -0.000000 1.456275 -0.000000 -31.581664 -0.000000 -0.000000 0.000002 1.471446 -0.000000 -1.133463 -16.658775 0.625745 0.000000 0.917755 0.000002 126.498997 -0.000001 -0.629534 0.000001 0.940221 -0.000000 1.709737 35.894546 -0.000001 0.113772 1.960660 -88.303875 -246.038714 0.000002 -0.669734 -0.113771 0.388340 -0.105561 3.370700 98.857419 
0.000000 0.000000 0.000000 -0.000000 1.019410 7.728381 -0.000000 -0.000000 1.456275 -0.000000 -32.100055 -0.000000 -0.000000 0.000002 1.471445 -0.000000 -1.133461 -16.015650 0.625745 0.000000 0.917755 0.000003 126.828895 -0.000002 -0.629534 0.000001 0.940221 -0.000000 1.709737 34.505330 -0.000001 0.113772 1.960660 -88.303875 -246.966608 0.000007 -0.669733 -0.113771 0.388339 -0.125777 3.385067 100.254425 
